<svg xmlns="http://www.w3.org/2000/svg" width="26.821" height="26.821" viewBox="0 0 26.821 26.821">
  <path id="Path_2411" data-name="Path 2411" d="M170.91,376.2a13.41,13.41,0,1,0,13.41,13.41A13.45,13.45,0,0,0,170.91,376.2Zm-11.582,13.41a11.582,11.582,0,0,1,23.163,0,11.279,11.279,0,0,1-2.5,7.132,11.745,11.745,0,0,0-5.791-4.511,5.717,5.717,0,0,0,1.585-4.023c0-3.048-2.194-5.486-4.876-5.486s-4.876,2.438-4.876,5.486a5.846,5.846,0,0,0,1.707,4.145,10.792,10.792,0,0,0-5.669,4.694A11.274,11.274,0,0,1,159.329,389.61Zm4.084,8.839c1.234,1.6,11.382,2.743,11.687,2.743.366,0,3.308-1.567,3.674-1.628,2.926.3-.122-3.309,1.219-1.115C177.92,400.338,165.424,400.156,163.413,398.449Z" transform="translate(-157.5 -376.2)" fill="#cfae8e"/>
</svg>
