<svg id="monetization_on-24px" xmlns="http://www.w3.org/2000/svg" width="26.821" height="26.821" viewBox="0 0 26.821 26.821">
  <path id="Path_9" data-name="Path 9" d="M14.329,2A12.329,12.329,0,1,0,26.659,14.329,12.334,12.334,0,0,0,14.329,2Zm1.738,19.838v2.355H12.776v-2.38c-2.108-.444-3.9-1.8-4.032-4.192h2.417c.123,1.295,1.011,2.306,3.267,2.306,2.417,0,2.959-1.208,2.959-1.96,0-1.023-.542-1.985-3.292-2.638-3.058-.74-5.154-2-5.154-4.525,0-2.121,1.714-3.5,3.834-3.958V4.466h3.292v2.4a4.359,4.359,0,0,1,3.514,4.18H17.165c-.062-1.369-.789-2.306-2.737-2.306-1.849,0-2.959.838-2.959,2.022,0,1.036.8,1.714,3.292,2.355s5.154,1.714,5.154,4.821c-.012,2.256-1.7,3.489-3.847,3.9Z" transform="translate(-0.919 -0.919)" fill="#cfae8e"/>
  <path id="Path_10" data-name="Path 10" d="M0,0H26.821V26.821H0Z" fill="none"/>
</svg>
