<svg id="shopping_cart-24px" xmlns="http://www.w3.org/2000/svg" width="26.821" height="26.821" viewBox="0 0 26.821 26.821">
  <path id="Path_2412" data-name="Path 2412" d="M0,0H26.821V26.821H0Z" fill="none"/>
  <path id="Path_2413" data-name="Path 2413" d="M7.973,20.6A2.324,2.324,0,1,0,10.3,22.92,2.321,2.321,0,0,0,7.973,20.6ZM1,2V4.324H3.324l4.184,8.821L5.939,15.993a2.247,2.247,0,0,0-.291,1.116,2.331,2.331,0,0,0,2.324,2.324H21.92V17.109H8.461a.288.288,0,0,1-.291-.291l.035-.139,1.046-1.894H17.91a2.313,2.313,0,0,0,2.034-1.2l4.161-7.543a1.135,1.135,0,0,0,.139-.558,1.166,1.166,0,0,0-1.162-1.162H5.893L4.8,2H1ZM19.6,20.6A2.324,2.324,0,1,0,21.92,22.92,2.321,2.321,0,0,0,19.6,20.6Z" transform="translate(-0.106 -0.212)" fill="#cfae8e"/>
</svg>
