<svg xmlns="http://www.w3.org/2000/svg" width="27" height="27" viewBox="0 0 27 27">
  <g id="emoji_events-24px" transform="translate(0.462 0.179)">
    <g id="Group_1" data-name="Group 1">
      <rect id="Rectangle_13" data-name="Rectangle 13" width="27" height="27" transform="translate(-0.462 -0.179)" fill="none"/>
    </g>
    <g id="Group_2" data-name="Group 2" transform="translate(2.682 2.682)">
      <path id="Path_13" data-name="Path 13" d="M22.072,5.384H19.688V3H7.768V5.384H5.384A2.391,2.391,0,0,0,3,7.768V8.96a5.95,5.95,0,0,0,5.233,5.889,5.971,5.971,0,0,0,4.3,3.528v3.7H7.768v2.384h11.92V22.072H14.92v-3.7a5.971,5.971,0,0,0,4.3-3.528A5.95,5.95,0,0,0,24.456,8.96V7.768A2.391,2.391,0,0,0,22.072,5.384Zm-14.3,6.938A3.588,3.588,0,0,1,5.384,8.96V7.768H7.768Zm14.3-3.362a3.588,3.588,0,0,1-2.384,3.362V7.768h2.384Z" transform="translate(-3 -3)" fill="#cfae8e"/>
    </g>
  </g>
</svg>
