<svg id="call-24px" xmlns="http://www.w3.org/2000/svg" width="26.821" height="26.821" viewBox="0 0 26.821 26.821">
  <path id="Path_2414" data-name="Path 2414" d="M0,0H26.821V26.821H0Z" fill="none"/>
  <path id="Path_2415" data-name="Path 2415" d="M23.276,17.757a13.64,13.64,0,0,1-4.208-.668,1.165,1.165,0,0,0-1.2.286l-1.871,2.348A18.1,18.1,0,0,1,7.78,11.583L10.1,9.6a1.217,1.217,0,0,0,.286-1.216A13.294,13.294,0,0,1,9.723,4.18,1.191,1.191,0,0,0,8.543,3H4.419C3.775,3,3,3.286,3,4.18A20.446,20.446,0,0,0,23.276,24.456a1.251,1.251,0,0,0,1.18-1.407V18.937a1.191,1.191,0,0,0-1.18-1.18Z" transform="translate(-0.318 -0.318)" fill="#cfae8e"/>
</svg>
