<svg xmlns="http://www.w3.org/2000/svg" width="26.82" height="26.82" viewBox="0 0 26.82 26.82">
  <path id="Path_2416" data-name="Path 2416" d="M26.326,17.123a9.616,9.616,0,0,0,.086-1.313,7.853,7.853,0,0,0-.1-1.313l2.915-2.207a.673.673,0,0,0,.172-.852L26.642,6.8a.711.711,0,0,0-.847-.307L22.362,7.834a10.217,10.217,0,0,0-2.326-1.313l-.517-3.548A.689.689,0,0,0,18.83,2.4H13.315a.674.674,0,0,0-.675.573l-.517,3.548A10.442,10.442,0,0,0,9.8,7.834L6.364,6.493a.694.694,0,0,0-.847.307L2.774,11.438a.624.624,0,0,0,.172.852L5.862,14.5a7.563,7.563,0,0,0-.029,2.626L2.918,19.33a.673.673,0,0,0-.172.852L5.5,24.82a.711.711,0,0,0,.847.307l3.432-1.341A10.217,10.217,0,0,0,12.109,25.1l.517,3.548a.7.7,0,0,0,.689.573H18.83a.664.664,0,0,0,.675-.573l.517-3.548a9.92,9.92,0,0,0,2.326-1.313l3.432,1.341a.694.694,0,0,0,.847-.307l2.757-4.638a.635.635,0,0,0-.172-.852ZM16.072,20.839A5.116,5.116,0,0,1,10.9,15.81a5.172,5.172,0,0,1,10.34,0A5.116,5.116,0,0,1,16.072,20.839Z" transform="translate(-2.662 -2.4)" fill="#cfae8e"/>
</svg>
