<svg xmlns="http://www.w3.org/2000/svg" xmlns:xlink="http://www.w3.org/1999/xlink" width="121.822" height="121.822" viewBox="0 0 121.822 121.822">
  <defs>
    <filter id="Ellipse_86" x="0" y="0" width="121.822" height="121.822" filterUnits="userSpaceOnUse">
      <feOffset dy="2" input="SourceAlpha"/>
      <feGaussianBlur stdDeviation="3.5" result="blur"/>
      <feFlood/>
      <feComposite operator="in" in2="blur"/>
      <feComposite in="SourceGraphic"/>
    </filter>
    <filter id="Ellipse_86-2" x="14.692" y="14.692" width="92.437" height="92.437" filterUnits="userSpaceOnUse">
      <feOffset dy="2" input="SourceAlpha"/>
      <feGaussianBlur stdDeviation="3.5" result="blur-2"/>
      <feFlood flood-opacity="0.4"/>
      <feComposite operator="in" in2="blur-2"/>
      <feComposite in="SourceGraphic"/>
    </filter>
    <filter id="Ellipse_80" x="22.716" y="23.716" width="76.39" height="76.39" filterUnits="userSpaceOnUse">
      <feOffset dy="3" input="SourceAlpha"/>
      <feGaussianBlur stdDeviation="3" result="blur-3"/>
      <feFlood flood-opacity="0.161"/>
      <feComposite operator="in" in2="blur-3"/>
      <feComposite in="SourceGraphic"/>
    </filter>
  </defs>
  <g id="Group_2566" data-name="Group 2566" transform="translate(-26.5 -494.5)">
    <g id="Group_543" data-name="Group 543">
      <g transform="matrix(1, 0, 0, 1, 26.5, 494.5)" filter="url(#Ellipse_86)">
        <circle id="Ellipse_86-3" data-name="Ellipse 86" cx="50.411" cy="50.411" r="50.411" transform="translate(10.5 8.5)" fill="#80806f" opacity="0.1"/>
      </g>
      <g transform="matrix(1, 0, 0, 1, 26.5, 494.5)" filter="url(#Ellipse_86-2)">
        <circle id="Ellipse_86-4" data-name="Ellipse 86" cx="35.718" cy="35.718" r="35.718" transform="translate(25.19 23.19)" fill="#80806f"/>
      </g>
      <g id="Group_498" data-name="Group 498" transform="translate(0.079 -5.897)">
        <g transform="matrix(1, 0, 0, 1, 26.42, 500.4)" filter="url(#Ellipse_80)">
          <path id="Ellipse_80-2" data-name="Ellipse 80" d="M29.195,0A29.195,29.195,0,1,1,0,29.195,29.195,29.195,0,0,1,29.195,0Z" transform="translate(31.72 29.72)" fill="#fff"/>
        </g>
      </g>
    </g>
    <g id="cosmetics" transform="translate(0.079 -5.897)">
      <path id="Path_2337" data-name="Path 2337" d="M94.842,560.838v9.41a1.255,1.255,0,0,0,1.224,1.273h4.25a1.262,1.262,0,0,0,1.236-1.273v-9.41Z" fill="#6d7486"/>
      <path id="Path_2338" data-name="Path 2338" d="M100.841,555.092h-5.3a.685.685,0,0,0-.094,1.361h5.491a.637.637,0,0,0,.379-.193.707.707,0,0,0,.2-.485A.679.679,0,0,0,100.841,555.092Z" fill="#6d7486"/>
      <path id="Path_2339" data-name="Path 2339" d="M73.113,565.745v3.615a2.151,2.151,0,0,0,2.13,2.161H92.337a2.163,2.163,0,0,0,2.143-2.161v-3.615Z" fill="#ed6337"/>
      <path id="Path_2340" data-name="Path 2340" d="M84.618,567.577a.8.8,0,1,1,0,1.6H81.949a.8.8,0,1,1,0-1.6Z" fill="#fff655"/>
      <path id="Path_2341" data-name="Path 2341" d="M83.79,549.707a9.8,9.8,0,0,0-6.261,17.329H89.9a9.717,9.717,0,0,0-6.112-17.329Z" fill="#6d7486"/>
      <path id="Path_2342" data-name="Path 2342" d="M91.5,558.925a7.853,7.853,0,0,1-6.392,7.528H82.548a7.641,7.641,0,1,1,8.957-7.528Z" fill="#a0eaea"/>
      <path id="Path_2343" data-name="Path 2343" d="M100.935,556.294v5.187H95.444v-5.193a.486.486,0,0,0,.093.006h5.4Z" fill="#a0eaea"/>
      <path id="Path_2344" data-name="Path 2344" d="M100.308,549.863v5.708H95.96v-8.2h.031c0,.385.77,1.124,1.858,1.757C98.952,549.775,100,550.086,100.308,549.863Z" fill="#d61d1d"/>
      <path id="Path_2345" data-name="Path 2345" d="M100.308,549.861c-.305.219-1.354-.087-2.466-.739-1.081-.634-1.858-1.373-1.858-1.758a.182.182,0,0,1,.031-.111c.193-.33,1.324-.032,2.522.67s2.019,1.541,1.825,1.87A.127.127,0,0,1,100.308,549.861Z" fill="#f43b3b"/>
      <path id="Path_2346" data-name="Path 2346" d="M74.976,569.36v-3.615H73.113v3.615a2.151,2.151,0,0,0,2.13,2.161h1.864A2.152,2.152,0,0,1,74.976,569.36Z" fill="#ff8f71"/>
      <path id="Path_2347" data-name="Path 2347" d="M78.113,558.925a7.636,7.636,0,0,1,6.7-7.584,7.643,7.643,0,0,0-2.286,15.109h1.863A7.643,7.643,0,0,1,78.113,558.925Z" fill="#cffffe"/>
      <path id="Path_2348" data-name="Path 2348" d="M96.705,570.248v-9.41H94.842v9.41a1.255,1.255,0,0,0,1.224,1.273h1.863A1.252,1.252,0,0,1,96.705,570.248Z" fill="#b0b5ca"/>
      <path id="Path_2349" data-name="Path 2349" d="M95.778,556.294a.486.486,0,0,1-.093-.006v5.193h1.863v-5.187Z" fill="#cffffe"/>
      <path id="Path_2350" data-name="Path 2350" d="M95.991,547.372H95.96v8.2l1.863-.025v-6.428C96.749,548.483,95.991,547.75,95.991,547.372Z" fill="#f44d4d"/>
      <path id="Path_2351" data-name="Path 2351" d="M96.976,555.782a.659.659,0,0,1,.2-.478.769.769,0,0,1,.3-.186H96.208v-.026h-.423a.685.685,0,0,0-.093,1.361h1.863A.681.681,0,0,1,96.976,555.782Z" fill="#b0b5ca"/>
      <g id="Group_512" data-name="Group 512">
        <path id="Path_2352" data-name="Path 2352" d="M94.473,565.73h-3.6a9.374,9.374,0,0,0,1.81-2.22,9.241,9.241,0,0,0,1.27-4.55,10.175,10.175,0,0,0-20.32,0,9.246,9.246,0,0,0,1.3,4.71c0,.02.01.03.03.05a9.061,9.061,0,0,0,1.61,2.01H73.1a.365.365,0,0,0-.37.35v3.42a2.444,2.444,0,0,0,2.51,2.37h17.09a2.409,2.409,0,0,0,2.17-1.21,2.311,2.311,0,0,0,.34-1.16v-3.42A.359.359,0,0,0,94.473,565.73Zm-2.14,5.43H75.243a1.7,1.7,0,0,1-1.76-1.66v-3.06H94.1v3.06A1.719,1.719,0,0,1,92.333,571.16Zm-8.46-19.07a7.089,7.089,0,0,1,7.26,6.87,6.638,6.638,0,0,1-1.82,4.45,7.6,7.6,0,0,1-4.24,2.32H82.6c-.18-.03-.35-.06-.52-.1a6.956,6.956,0,0,1-5.46-6.67,7.053,7.053,0,0,1,5.28-6.63h.01A6.352,6.352,0,0,1,83.873,552.09Zm-9.5,6.87a9.429,9.429,0,0,1,18.83,0,8.717,8.717,0,0,1-3.44,6.77h-2.4a8.372,8.372,0,0,0,2.51-1.86,7.2,7.2,0,0,0,2.01-4.91,7.477,7.477,0,0,0-4.12-6.61,2.127,2.127,0,0,0-.21-.11,7.858,7.858,0,0,0-3.13-.83H84.4a4.542,4.542,0,0,0-.52-.03,8.106,8.106,0,0,0-3.99,1.02c-.01.01-.03.01-.04.02s-.02.01-.03.02-.03.01-.05.03a7.38,7.38,0,0,0,.5,13.25h-2.61A8.642,8.642,0,0,1,74.373,558.96Z" fill="#284268"/>
        <path id="Path_2353" data-name="Path 2353" d="M84.623,567.2h-2.67a1.175,1.175,0,0,0,0,2.35h2.67a1.175,1.175,0,1,0,0-2.35Zm0,1.6h-2.67a.425.425,0,1,1,0-.85h2.67a.425.425,0,1,1,0,.85Z" fill="#284268"/>
        <path id="Path_2354" data-name="Path 2354" d="M83.1,553.55a5.805,5.805,0,0,0-.982.136.38.38,0,0,0-.279.448.364.364,0,0,0,.36.285.412.412,0,0,0,.087-.012,4.9,4.9,0,0,1,.851-.118.37.37,0,0,0-.009-.74Z" fill="#284268"/>
        <path id="Path_2355" data-name="Path 2355" d="M81.146,553.986a5.63,5.63,0,0,0-3.162,5.044.373.373,0,1,0,.745.033.18.18,0,0,0,0-.033,4.886,4.886,0,0,1,2.739-4.373.372.372,0,0,0,.174-.5h0a.365.365,0,0,0-.484-.18Z" fill="#284268"/>
        <path id="Path_2356" data-name="Path 2356" d="M101.553,560.99h-.24v-4.33a.981.981,0,0,0,.57-.88,1.018,1.018,0,0,0-1.04-1h-.1v-5.07c.09-.29-.07-.65-.5-1.06a6.707,6.707,0,0,0-1.51-1.08,7.484,7.484,0,0,0-1.73-.73c-.68-.18-1.12-.1-1.31.21a.564.564,0,0,0-.04.49v7.24h-.11a1.025,1.025,0,0,0-1.05.99.993.993,0,0,0,.58.89v4.33h-.25a.359.359,0,0,0-.37.35v8.98a1.27,1.27,0,0,0,.05.34,1.589,1.589,0,0,0,1.56,1.2h4.25a1.6,1.6,0,0,0,1.62-1.54v-8.98A.382.382,0,0,0,101.553,560.99Zm-.37,9.34a.848.848,0,0,1-.87.82h-4.25a.854.854,0,0,1-.87-.82V561.7h5.99Zm-3.36-20.92a8.519,8.519,0,0,0,1.56.64,2.555,2.555,0,0,0,.61.08v4.66h-3.6v-6.32A8.018,8.018,0,0,0,97.823,549.41Zm2.04-.01a.109.109,0,0,1-.05.01,6.013,6.013,0,0,1-1.79-.7,5.777,5.777,0,0,1-1.51-1.14.061.061,0,0,1,0-.08c.02-.01.04-.02.05-.01a5.854,5.854,0,0,1,1.79.7,5.738,5.738,0,0,1,1.51,1.13A.075.075,0,0,1,99.863,549.4Zm.98,6.09a.3.3,0,0,1,.3.27.3.3,0,0,1-.27.3h-5.34a.273.273,0,0,1-.29-.27.281.281,0,0,1,.26-.3Zm-.28,5.5h-4.75v-4.22h4.75Z" fill="#284268"/>
        <path id="Path_2357" data-name="Path 2357" d="M96.252,563.7a.374.374,0,0,0,.373-.373v-.59a.373.373,0,0,0-.745,0v.59A.373.373,0,0,0,96.252,563.7Z" fill="#284268"/>
        <path id="Path_2358" data-name="Path 2358" d="M96.252,569.8a.374.374,0,0,0,.373-.373v-5.2a.373.373,0,0,0-.745,0v5.2A.372.372,0,0,0,96.252,569.8Z" fill="#284268"/>
      </g>
    </g>
  </g>
</svg>
