<svg xmlns="http://www.w3.org/2000/svg" xmlns:xlink="http://www.w3.org/1999/xlink" width="121.822" height="121.822" viewBox="0 0 121.822 121.822">
  <defs>
    <filter id="Ellipse_86" x="0" y="0" width="121.822" height="121.822" filterUnits="userSpaceOnUse">
      <feOffset dy="2" input="SourceAlpha"/>
      <feGaussianBlur stdDeviation="3.5" result="blur"/>
      <feFlood/>
      <feComposite operator="in" in2="blur"/>
      <feComposite in="SourceGraphic"/>
    </filter>
    <filter id="Ellipse_86-2" x="14.692" y="14.692" width="92.437" height="92.437" filterUnits="userSpaceOnUse">
      <feOffset dy="2" input="SourceAlpha"/>
      <feGaussianBlur stdDeviation="3.5" result="blur-2"/>
      <feFlood flood-opacity="0.4"/>
      <feComposite operator="in" in2="blur-2"/>
      <feComposite in="SourceGraphic"/>
    </filter>
    <filter id="Ellipse_80" x="22.716" y="23.716" width="76.39" height="76.39" filterUnits="userSpaceOnUse">
      <feOffset dy="3" input="SourceAlpha"/>
      <feGaussianBlur stdDeviation="3" result="blur-3"/>
      <feFlood flood-opacity="0.161"/>
      <feComposite operator="in" in2="blur-3"/>
      <feComposite in="SourceGraphic"/>
    </filter>
  </defs>
  <g id="Group_2571" data-name="Group 2571" transform="translate(-124.523 -596.462)">
    <g id="Group_545" data-name="Group 545">
      <g transform="matrix(1, 0, 0, 1, 124.52, 596.46)" filter="url(#Ellipse_86)">
        <circle id="Ellipse_86-3" data-name="Ellipse 86" cx="50.411" cy="50.411" r="50.411" transform="translate(10.5 8.5)" fill="#80806f" opacity="0.1"/>
      </g>
      <g transform="matrix(1, 0, 0, 1, 124.52, 596.46)" filter="url(#Ellipse_86-2)">
        <circle id="Ellipse_86-4" data-name="Ellipse 86" cx="35.718" cy="35.718" r="35.718" transform="translate(25.19 23.19)" fill="#80806f"/>
      </g>
      <g id="Group_498" data-name="Group 498" transform="translate(0.079 -4.897)">
        <g transform="matrix(1, 0, 0, 1, 124.44, 601.36)" filter="url(#Ellipse_80)">
          <circle id="Ellipse_80-2" data-name="Ellipse 80" cx="29.195" cy="29.195" r="29.195" transform="translate(31.72 29.72)" fill="#fff"/>
        </g>
      </g>
    </g>
    <g id="perfume" transform="translate(0.079 -4.897)">
      <g id="Group_520" data-name="Group 520">
        <path id="Path_2394" data-name="Path 2394" d="M191.775,647.8l-1.571-1.571a.433.433,0,0,0-.3-.126h-9.093a.433.433,0,0,0-.3.126l-.431.431c-.13.13-.73.9-.649,1.065l2.773,5.487,7.46-.57,2.2-4.346a.429.429,0,0,0-.08-.5Z" fill="#f3f1f4"/>
        <path id="Path_2395" data-name="Path 2395" d="M180,647.152a.427.427,0,0,1,.08-.495l-1.141,1.14a.43.43,0,0,0-.079.5l2.772,5.484h7.453l.576-1.14h-6.889Z" fill="#d1cfe8"/>
        <path id="Path_2396" data-name="Path 2396" d="M187.041,652.639v-2.525a.428.428,0,0,0-.428-.427H184.1a.427.427,0,0,0-.427.427v2.525l1.659.57Z" fill="#fff0af"/>
        <path id="Path_2397" data-name="Path 2397" d="M187.041,655.59v-2.951h-2.229v-2.952H184.1a.427.427,0,0,0-.427.427v2.525l1.659,3.522Z" fill="#ffd064"/>
        <path id="Path_2398" data-name="Path 2398" d="M183.669,652.639h1.14v1.4h-1.14Z" fill="#ebb044"/>
        <path id="Path_2399" data-name="Path 2399" d="M182.768,653.779l-.57,1.378,6.883-.57v-.808Z" fill="#e2a5cf"/>
        <path id="Path_2400" data-name="Path 2400" d="M182.767,653.779h-1.139v2.233h7.453v-1.425h-6.314Z" fill="#d273b3"/>
        <path id="Path_2401" data-name="Path 2401" d="M181.1,671.019s.85,2.25,1.151,2.828l6.523-.2a6.233,6.233,0,0,0,.922-.429q.645-1.317,1.179-2.571Z" fill="#fff0af"/>
        <path id="Path_2402" data-name="Path 2402" d="M183.4,673.3a1.022,1.022,0,0,1-.915-.562q-.291-.58-.565-1.149l-2.084-.944q.59,1.386,1.314,2.846a1.709,1.709,0,0,0,1.533.949h5.354a1.708,1.708,0,0,0,1.532-.949c.046-.092.092-.185.137-.277a1.714,1.714,0,0,1-.527.084Z" fill="#ffd064"/>
        <path id="Path_2403" data-name="Path 2403" d="M181.1,671.019h8.721c.624,0,1.2-.91,1.5-1.454a24.609,24.609,0,0,0,2.027-8.51c0-4.4-4.267-5.613-4.267-5.613h-7.452a6.767,6.767,0,0,0-2.031,1.076,5.659,5.659,0,0,0-1.666,3.795C177.931,665.125,180.935,671.019,181.1,671.019Z" fill="#ffd064"/>
        <path id="Path_2404" data-name="Path 2404" d="M189.825,670.448h-7.991a.706.706,0,0,1-.639-.429c-1.782-4.058-2.694-7.579-2.694-10.1a5.493,5.493,0,0,1,1.095-3.4,5.512,5.512,0,0,0-2.236,4.536,26.348,26.348,0,0,0,2.471,9.59,1.708,1.708,0,0,0,1.533.944h7.984a1.709,1.709,0,0,0,1.533-.944q.232-.546.443-1.079a1.706,1.706,0,0,1-1.5.883Z" fill="#ebb044"/>
        <path id="Path_2405" data-name="Path 2405" d="M184.5,655.442h1.711v14.44H184.5Z" fill="#fff0af"/>
      </g>
      <g id="Group_521" data-name="Group 521">
        <path id="Path_2406" data-name="Path 2406" d="M189.853,661a.416.416,0,0,0-.58.15l-1.59,2.46h-1.05v-2.23a.424.424,0,0,0-.19-.36.389.389,0,0,0-.23-.07.423.423,0,0,0-.36.2l-.93,1.43v-2.62a.422.422,0,0,0-.42-.42h-.01a.425.425,0,0,0-.42.43v3.64H181.8l1.24-1.92a1.1,1.1,0,0,0,.17-.59,1.082,1.082,0,0,0-1.08-1.08h-1.1a.43.43,0,0,0,0,.86h1.1a.238.238,0,0,1,.12.03.229.229,0,0,1,.07.32l-1.66,2.58a.41.41,0,0,0-.07.22.427.427,0,0,0,.43.43h3.05v5.42a.427.427,0,0,0,.43.43.438.438,0,0,0,.42-.43v-5.72l.86-1.33v1.21a.423.423,0,0,0,.42.42h1.72a.437.437,0,0,0,.36-.19l1.71-2.66a.035.035,0,0,1,.01-.02A.425.425,0,0,0,189.853,661Zm-3.64,4.32a.427.427,0,0,0-.43.43v4.13a.427.427,0,0,0,.43.43.431.431,0,0,0,.42-.43v-4.14A.423.423,0,0,0,186.213,665.32Zm6.63-7.57a.436.436,0,0,0-.6-.13c-.01,0-.01.01-.02.01a.449.449,0,0,0-.1.58,5.115,5.115,0,0,1,.8,2.84,25.436,25.436,0,0,1-2.35,9.22c-.02.05-.05.11-.07.17a1.642,1.642,0,0,1-.14.22,1.177,1.177,0,0,1-.42.35,1.2,1.2,0,0,1-.59.15h-7.99a1.49,1.49,0,0,1-.21-.02,1.294,1.294,0,0,1-.94-.7,25.873,25.873,0,0,1-2.43-9.38,5.187,5.187,0,0,1,.29-1.8,5.1,5.1,0,0,1,.81-1.46,4.884,4.884,0,0,1,.85-.85,6.618,6.618,0,0,1,1.89-1.05c.02-.01.05-.02.07-.03h2.38v2.47a.425.425,0,0,0,.42.43h.01a.431.431,0,0,0,.42-.43v-2.47h.86v3.8a.423.423,0,0,0,.42.42h.01a.416.416,0,0,0,.42-.42v-3.8h2.38c.02.01.05.02.07.03a6.714,6.714,0,0,1,2.04,1.18.433.433,0,0,0,.59-.03l.01-.01a.449.449,0,0,0-.04-.61,7.47,7.47,0,0,0-2.17-1.29v-1.26l2.72-5.39a.836.836,0,0,0-.16-.99l-1.57-1.58a.857.857,0,0,0-.6-.25h-6.23a.427.427,0,0,0-.43.43.433.433,0,0,0,.43.43h6.23l1.57,1.57-2.29,4.54-.02.04-.34.67h-1.36v-1.06a.425.425,0,0,0-.85,0v1.06h-2.52v-3.24h2.52v.48a.425.425,0,0,0,.43.42.418.418,0,0,0,.42-.43v-.47a.849.849,0,0,0-.85-.85h-2.52a.849.849,0,0,0-.85.85v3.24h-1.35l-2.66-5.25,1.57-1.57h1.15a.427.427,0,0,0,.43-.43.433.433,0,0,0-.43-.43H180.8a.857.857,0,0,0-.6.25l-1.57,1.58a.851.851,0,0,0-.16.99l2.72,5.39v1.26a7.3,7.3,0,0,0-1.97,1.13,5.945,5.945,0,0,0-2.29,4.79c0,3.16,1.36,7.65,3.83,12.62a2.129,2.129,0,0,0,1.91,1.19h5.36a2.118,2.118,0,0,0,1.91-1.19c2.47-4.97,3.83-9.46,3.83-12.63v-.1A5.915,5.915,0,0,0,192.843,657.75Zm-3.66,15.55a.973.973,0,0,1-.15.24,1.276,1.276,0,0,1-1,.47h-5.35a1.265,1.265,0,0,1-1.15-.71c-.22-.45-.44-.89-.64-1.34a1.894,1.894,0,0,0,.47.06h7.99a1.836,1.836,0,0,0,.47-.06C189.623,672.41,189.4,672.85,189.183,673.3Zm-7.13-19.09h6.6v.81h-6.6Z"/>
      </g>
    </g>
  </g>
</svg>
