<svg xmlns="http://www.w3.org/2000/svg" xmlns:xlink="http://www.w3.org/1999/xlink" width="93.558" height="93.558" viewBox="0 0 93.558 93.558">
  <defs>
    <filter id="Ellipse_85" x="0" y="0" width="93.558" height="93.558" filterUnits="userSpaceOnUse">
      <feOffset dy="2" input="SourceAlpha"/>
      <feGaussianBlur stdDeviation="3.5" result="blur"/>
      <feFlood flood-opacity="0.988"/>
      <feComposite operator="in" in2="blur"/>
      <feComposite in="SourceGraphic"/>
    </filter>
    <filter id="Ellipse_85-2" x="8.584" y="9.584" width="76.39" height="76.39" filterUnits="userSpaceOnUse">
      <feOffset dy="3" input="SourceAlpha"/>
      <feGaussianBlur stdDeviation="3" result="blur-2"/>
      <feFlood flood-opacity="0.161"/>
      <feComposite operator="in" in2="blur-2"/>
      <feComposite in="SourceGraphic"/>
    </filter>
  </defs>
  <g id="Group_2567" data-name="Group 2567" transform="translate(-140.093 -509.252)">
    <g id="Group_542" data-name="Group 542">
      <g id="Group_495" data-name="Group 495" transform="translate(0.079 -5.897)" opacity="0.15">
        <g transform="matrix(1, 0, 0, 1, 140.01, 515.15)" filter="url(#Ellipse_85)">
          <circle id="Ellipse_85-3" data-name="Ellipse 85" cx="36.279" cy="36.279" r="36.279" transform="translate(10.5 8.5)" fill="#bc9b7c"/>
        </g>
      </g>
      <g id="Group_495-2" data-name="Group 495" transform="translate(0.079 -5.897)">
        <g transform="matrix(1, 0, 0, 1, 140.01, 515.15)" filter="url(#Ellipse_85-2)">
          <circle id="Ellipse_85-4" data-name="Ellipse 85" cx="29.195" cy="29.195" r="29.195" transform="translate(17.58 15.58)" fill="#cfae8e"/>
        </g>
      </g>
    </g>
    <g id="watch" transform="translate(0.079 -5.897)">
      <g id="Group_510" data-name="Group 510">
        <g id="Group_507" data-name="Group 507">
          <path id="Path_2323" data-name="Path 2323" d="M193.723,559.14v-.03c-.02-.23-.06-.45-.1-.68,0-.02-.01-.05-.01-.07a8.012,8.012,0,0,0-2.67-4.53,7.044,7.044,0,0,0-1.04-.75v-.01l-.33-.18a.311.311,0,0,0-.1-.05.406.406,0,0,0-.09-.05,3.22,3.22,0,0,0-.5-.23,7.679,7.679,0,0,0-2.34-.6h-.03q-.375-.03-.75-.03c-.12,0-.25,0-.37.01a.139.139,0,0,0-.09,0,.246.246,0,0,0-.12.01c-.08.01-.16.01-.24.02a3.106,3.106,0,0,0-.44.06c-.12.02-.24.04-.35.06a2.227,2.227,0,0,0-.39.09c-.13.03-.25.07-.38.11a5.054,5.054,0,0,0-.74.27,1.477,1.477,0,0,0-.22.1.31.31,0,0,0-.13.06,3.023,3.023,0,0,0-.31.16c-.01-.01-.02,0-.03.01-.12.06-.22.12-.33.18a.01.01,0,0,0-.01.01c-.21.13-.41.26-.61.41-.02.01-.02.02-.03.03-.07.05-.14.1-.21.16s-.13.1-.19.15a7.764,7.764,0,0,0-1.18,1.25,7.844,7.844,0,0,0-.64.98l-.03.06c-.05.08-.09.16-.14.25a8.02,8.02,0,0,0-.4,1,2.532,2.532,0,0,0-.12.36,8,8,0,0,0-.27,1.41,7.085,7.085,0,0,0-.04.79,6.45,6.45,0,0,0,.04.76,6.094,6.094,0,0,0,.1.73,7.04,7.04,0,0,0,.24.93,3.045,3.045,0,0,0,.14.39,3.76,3.76,0,0,0,.23.55,2.018,2.018,0,0,0,.18.36.355.355,0,0,0,.04.09c.07.14.15.26.23.39a5.92,5.92,0,0,0,.35.52c.03.04.06.09.09.13.12.15.24.3.37.44a7.658,7.658,0,0,0,.81.8,5.455,5.455,0,0,0,.45.36c.12.09.25.18.38.26a1.65,1.65,0,0,0,.22.14v.01l.33.18a7.92,7.92,0,0,0,.72.34,2.6,2.6,0,0,0,.25.1c.13.05.26.1.39.14.1.03.2.06.31.09.19.05.39.1.59.14.24.05.48.08.73.11h.03a8.237,8.237,0,0,0,1.57,0,7.841,7.841,0,0,0,2.31-.58c.01,0,.02-.01.03-.01.17-.08.34-.15.5-.24.01,0,.02-.01.03-.01.17-.08.33-.17.49-.26v-.01c.04-.03.09-.06.13-.09.15-.09.29-.19.43-.29a4.382,4.382,0,0,0,.48-.37,8.013,8.013,0,0,0,2.67-4.53c0-.02.01-.05.01-.07.04-.23.08-.45.1-.68v-.03a7.822,7.822,0,0,0,0-1.58Zm-3.36,4.49c-.02.02-.03.04-.05.06a4.029,4.029,0,0,1-.34.37,5.228,5.228,0,0,1-.8.68,2.816,2.816,0,0,1-.36.24,2.168,2.168,0,0,1-.33.19c-.07.04-.15.08-.23.12-.1.04-.19.08-.29.12a3.427,3.427,0,0,1-.45.16,2.873,2.873,0,0,1-.42.11.185.185,0,0,1-.07.02c-.16.03-.32.06-.48.08a2.332,2.332,0,0,1-.38.04,2.546,2.546,0,0,1-.39.02,5.917,5.917,0,0,1-5.92-5.91,2.807,2.807,0,0,1,.01-.29,2.46,2.46,0,0,1,.02-.28c0-.04.01-.09.01-.13a1.908,1.908,0,0,1,.06-.33,1.662,1.662,0,0,1,.03-.22c.04-.16.08-.32.13-.47,0-.02,0-.03.01-.04.02-.08.05-.15.07-.22s.04-.11.06-.16a5.233,5.233,0,0,1,.38-.79,5.105,5.105,0,0,1,.53-.78,3.175,3.175,0,0,1,.3-.34c0-.01.01-.01.03-.02a.555.555,0,0,1,.06-.08c.04-.04.09-.08.13-.12,0-.01,0-.01.01-.01a1.529,1.529,0,0,1,.13-.12.1.1,0,0,1,.05-.04.27.27,0,0,1,.08-.07,4.123,4.123,0,0,1,.41-.32.606.606,0,0,1,.1-.07c.09-.06.19-.12.29-.18a3.758,3.758,0,0,1,.44-.24,3.919,3.919,0,0,1,.36-.16,4.716,4.716,0,0,1,.53-.18.318.318,0,0,1,.09-.03.749.749,0,0,1,.16-.04,1.045,1.045,0,0,1,.17-.04.468.468,0,0,1,.17-.03c.01,0,.01,0,.02-.01a.222.222,0,0,1,.09-.01,1.5,1.5,0,0,1,.24-.04.59.59,0,0,1,.14-.02q.3-.03.6-.03a5.452,5.452,0,0,1,.57.03,1.224,1.224,0,0,1,.19.02h.02c.14.02.27.04.41.07a5.461,5.461,0,0,1,.92.28,2.327,2.327,0,0,1,.28.11,3.137,3.137,0,0,1,.37.18c.12.07.24.13.36.21a5.413,5.413,0,0,1,.67.48,6.461,6.461,0,0,1,.74.74c0,.01.01.02.02.03a3.633,3.633,0,0,1,.34.46,4.807,4.807,0,0,1,.3.48c.1.2.19.4.28.61a.037.037,0,0,1,.01.03,2.353,2.353,0,0,1,.15.42,3.4,3.4,0,0,1,.15.57,2.9,2.9,0,0,1,.09.59,4.032,4.032,0,0,1,.04.6,5.738,5.738,0,0,1-.28,1.76c-.05.18-.12.36-.19.54-.07.16-.15.33-.23.48-.02.03-.03.06-.05.09a3.858,3.858,0,0,1-.27.43C190.563,563.37,190.463,563.5,190.363,563.63Z" fill="#faef93" fill-rule="evenodd"/>
          <circle id="Ellipse_92" data-name="Ellipse 92" cx="5.908" cy="5.908" r="5.908" transform="translate(179.853 554.022)" fill="#cfdbfa"/>
          <path id="Path_2324" data-name="Path 2324" d="M193.608,561.5h2.251v-3.143h-2.251A8.07,8.07,0,0,1,193.608,561.5Z" fill="#faef93" fill-rule="evenodd"/>
          <path id="Path_2325" data-name="Path 2325" d="M189.9,550.35l-1.05-.52v2.71c.01,0,.02.01.03.02a3.22,3.22,0,0,1,.5.23.406.406,0,0,1,.09.05.311.311,0,0,1,.1.05c.11.06.22.12.33.19a7.044,7.044,0,0,1,1.04.75v-2.96Zm-7.95,16.62c-.11-.06-.22-.12-.33-.19a1.65,1.65,0,0,1-.22-.14c-.13-.08-.26-.17-.38-.26a5.455,5.455,0,0,1-.45-.36v2.96l1.05.52,1.05.52v-2.71A7.92,7.92,0,0,1,181.953,566.97Zm-.33-16.62v.01l-1.05.52v2.95c.06-.05.12-.1.19-.15s.14-.11.21-.16c.01-.01.01-.02.03-.03.2-.15.4-.28.61-.41a.01.01,0,0,1,.01-.01c.11-.06.21-.12.33-.18.01-.01.02-.02.03-.01a.911.911,0,0,1,.13-.08,1.424,1.424,0,0,1,.18-.08.31.31,0,0,1,.13-.06,1.477,1.477,0,0,1,.22-.1c.01-.01.02-.02.03-.02v-2.71Zm8.84,16.05c-.14.1-.28.2-.43.29s-.29.18-.45.26a.948.948,0,0,1-.17.1c-.01,0-.02.01-.03.01-.16.09-.33.16-.5.24-.01,0-.02.01-.03.01v2.71l1.05-.52,1.04-.52v-2.96C190.783,566.15,190.623,566.28,190.463,566.4Z" fill="#faef93" fill-rule="evenodd"/>
          <path id="Path_2326" data-name="Path 2326" d="M182.673,542.57v7.26h6.18v-7.26Zm0,27.46v7.26h6.18v-7.26Z" fill="#72869e" fill-rule="evenodd"/>
          <path id="Path_2327" data-name="Path 2327" d="M182.673,542.57v7.26h1.57v-7.26Zm0,27.46v7.26h1.57v-7.26Z" fill="#61748b" fill-rule="evenodd"/>
          <path id="Path_2328" data-name="Path 2328" d="M188.853,549.83v2.71c.01,0,.02.01.03.02a3.22,3.22,0,0,1,.5.23.406.406,0,0,1,.09.05.311.311,0,0,1,.1.05c.11.06.22.12.33.19v-2.73Zm-7.45,16.81c-.13-.08-.26-.17-.38-.26a5.455,5.455,0,0,1-.45-.36v2.96l1.05.52v-2.72A1.65,1.65,0,0,1,181.4,566.64Zm-.83-15.77v2.96c.06-.05.12-.1.19-.15s.14-.11.21-.16c.01-.01.01-.02.03-.03.2-.15.4-.28.61-.41a.01.01,0,0,1,.01-.01v-2.72Zm9.01,16.08a.948.948,0,0,1-.17.1c-.01,0-.02.01-.03.01-.16.09-.33.16-.5.24-.01,0-.02.01-.03.01v2.71l1.05-.52v-2.72A3.237,3.237,0,0,1,189.583,566.95Z" fill="#f8e868" fill-rule="evenodd"/>
          <path id="Path_2329" data-name="Path 2329" d="M186.546,567.893a8,8,0,0,1,0-15.928,8,8,0,1,0,0,15.928Z" fill="#f8e868" fill-rule="evenodd"/>
          <path id="Path_2330" data-name="Path 2330" d="M179.853,559.929a5.911,5.911,0,0,0,6.693,5.855,5.908,5.908,0,0,1,0-11.71,5.906,5.906,0,0,0-6.693,5.855Z" fill="#9eb6f4" fill-rule="evenodd"/>
          <path id="Path_2331" data-name="Path 2331" d="M193.608,561.5h1.049a8.108,8.108,0,0,0,0-3.143h-1.049A8.07,8.07,0,0,1,193.608,561.5Z" fill="#f8e868" fill-rule="evenodd"/>
        </g>
        <g id="Group_508" data-name="Group 508">
          <path id="Path_2332" data-name="Path 2332" d="M184.713,562.69v1.05h1.05v-1.05Zm4.28-2.6a2.609,2.609,0,0,1-2.19,2.6v1.05a3.616,3.616,0,0,0,3.23-3.56Z" fill="#fff"/>
        </g>
        <g id="Group_509" data-name="Group 509">
          <path id="Path_2333" data-name="Path 2333" d="M186.233,544.14v1.05h1.05v-1.05Zm-1.99,30.53v1.05h1.05v-1.05Z" fill="#fff"/>
        </g>
      </g>
      <g id="Group_511" data-name="Group 511">
        <path id="Path_2334" data-name="Path 2334" d="M190.7,555.8l-.8.673a5.383,5.383,0,1,1-.675-.675l.673-.8a6.43,6.43,0,1,0,.8.8Z"/>
        <path id="Path_2335" data-name="Path 2335" d="M196.383,562.02v-4.19h-2.36a8.458,8.458,0,0,0-.63-1.7l.92-.53-.52-.91-.93.53a8.574,8.574,0,0,0-1.39-1.62v-3.05l-2.1-1.04v-7.46h-7.23v3.63h1.05v-2.59h5.13v6.22h-2.04v1.04h2.04v1.45a8.475,8.475,0,0,0-5.13,0v-1.45h2.04v-1.04h-2.04v-2.59h-1.05v2.79l-2.1,1.04v3.05a8.953,8.953,0,0,0-1.39,1.62l-.92-.53-.53.9.92.54a8.536,8.536,0,0,0,0,7.6l-.92.53.53.91.92-.53a8.562,8.562,0,0,0,1.39,1.61v3.05l2.1,1.05v7.46h7.23v-3.63h-1.05v2.58h-5.13v-6.21h2.04V569.5h-2.04v-1.44a8.474,8.474,0,0,0,5.13,0v1.44h-2.04v1.05h2.04v2.58h1.05v-2.78l2.1-1.05v-3.04a8.572,8.572,0,0,0,1.39-1.62l.93.53.52-.91-.92-.53a8.691,8.691,0,0,0,.63-1.7Zm-1.05-3.14v2.1h-1.11a9.219,9.219,0,0,0,0-2.1Zm-5.96,8.77c.18-.09.36-.18.53-.28a5.479,5.479,0,0,0,.52-.31v1.6l-.52.26-.53.26Zm1.67-2.43a7.494,7.494,0,0,1-5.28,2.19,7.24,7.24,0,0,1-1.81-.23,7.473,7.473,0,0,1-.02-14.5h.02a7.184,7.184,0,0,1,1.81-.23,7.474,7.474,0,0,1,5.28,12.77Zm-9.95,1.84c.17.11.35.22.53.32a5.13,5.13,0,0,0,.52.27v1.53l-.52-.26-.53-.26Zm1.05-14.85c-.18.08-.35.17-.52.26-.18.11-.36.21-.53.32V551.2l.53-.26.52-.26Zm8.28.58c-.17-.11-.34-.21-.52-.31s-.35-.18-.53-.27v-1.53l.53.26.52.26Z"/>
        <path id="Path_2336" data-name="Path 2336" d="M184.238,557.415l-.786.694,2.307,2.61,3.01-3.4-.784-.7-2.225,2.51Z"/>
      </g>
    </g>
  </g>
</svg>
