<svg xmlns="http://www.w3.org/2000/svg" xmlns:xlink="http://www.w3.org/1999/xlink" width="121.822" height="121.822" viewBox="0 0 121.822 121.822">
  <defs>
    <filter id="Ellipse_86" x="0" y="0" width="121.822" height="121.822" filterUnits="userSpaceOnUse">
      <feOffset dy="2" input="SourceAlpha"/>
      <feGaussianBlur stdDeviation="3.5" result="blur"/>
      <feFlood/>
      <feComposite operator="in" in2="blur"/>
      <feComposite in="SourceGraphic"/>
    </filter>
    <filter id="Ellipse_86-2" x="14.692" y="14.692" width="92.437" height="92.437" filterUnits="userSpaceOnUse">
      <feOffset dy="2" input="SourceAlpha"/>
      <feGaussianBlur stdDeviation="3.5" result="blur-2"/>
      <feFlood flood-opacity="0.4"/>
      <feComposite operator="in" in2="blur-2"/>
      <feComposite in="SourceGraphic"/>
    </filter>
    <filter id="Ellipse_80" x="22.716" y="23.716" width="76.39" height="76.39" filterUnits="userSpaceOnUse">
      <feOffset dy="3" input="SourceAlpha"/>
      <feGaussianBlur stdDeviation="3" result="blur-3"/>
      <feFlood flood-opacity="0.161"/>
      <feComposite operator="in" in2="blur-3"/>
      <feComposite in="SourceGraphic"/>
    </filter>
  </defs>
  <g id="Group_2568" data-name="Group 2568" transform="translate(-226.836 -494.684)">
    <g id="Group_541" data-name="Group 541">
      <g transform="matrix(1, 0, 0, 1, 226.84, 494.68)" filter="url(#Ellipse_86)">
        <circle id="Ellipse_86-3" data-name="Ellipse 86" cx="50.411" cy="50.411" r="50.411" transform="translate(10.5 8.5)" fill="#80806f" opacity="0.1"/>
      </g>
      <g transform="matrix(1, 0, 0, 1, 226.84, 494.68)" filter="url(#Ellipse_86-2)">
        <circle id="Ellipse_86-4" data-name="Ellipse 86" cx="35.718" cy="35.718" r="35.718" transform="translate(25.19 23.19)" fill="#80806f"/>
      </g>
      <g id="Group_498" data-name="Group 498" transform="translate(0.079 -5.897)">
        <g transform="matrix(1, 0, 0, 1, 226.76, 500.58)" filter="url(#Ellipse_80)">
          <circle id="Ellipse_80-2" data-name="Ellipse 80" cx="29.195" cy="29.195" r="29.195" transform="translate(31.72 29.72)" fill="#fff"/>
        </g>
      </g>
    </g>
    <g id="jewelery" transform="translate(0.079 -5.897)">
      <g id="Group_505" data-name="Group 505">
        <g id="Group_501" data-name="Group 501">
          <path id="Path_2289" data-name="Path 2289" d="M277.909,550.98a1.223,1.223,0,1,0,.22-1.715h0a1.221,1.221,0,0,0-.22,1.712Z" fill="#e5ecf5" fill-rule="evenodd"/>
          <path id="Path_2290" data-name="Path 2290" d="M279.581,553.429a1.382,1.382,0,1,0-.418-.365A1.369,1.369,0,0,0,279.581,553.429Z" fill="#e5ecf5" fill-rule="evenodd"/>
          <path id="Path_2291" data-name="Path 2291" d="M281.7,554.807a1.387,1.387,0,1,0-.308-1.94,1.387,1.387,0,0,0,.308,1.94Z" fill="#e5ecf5" fill-rule="evenodd"/>
          <path id="Path_2292" data-name="Path 2292" d="M284.065,556.343a1.41,1.41,0,1,0-.005,0Z" fill="#e5ecf5" fill-rule="evenodd"/>
          <circle id="Ellipse_90" data-name="Ellipse 90" cx="2.095" cy="2.095" r="2.095" transform="translate(285.579 554.739)" fill="#e5ecf5"/>
          <path id="Path_2293" data-name="Path 2293" d="M289.384,555.856a1.419,1.419,0,1,0-.014-.025Z" fill="#e5ecf5" fill-rule="evenodd"/>
          <path id="Path_2294" data-name="Path 2294" d="M291.693,554.5a1.387,1.387,0,1,0,.308-1.94,1.386,1.386,0,0,0-.308,1.94Z" fill="#e5ecf5" fill-rule="evenodd"/>
          <path id="Path_2295" data-name="Path 2295" d="M293.936,553.043a1.384,1.384,0,1,0-.083-.127A1.318,1.318,0,0,0,293.936,553.043Z" fill="#e5ecf5" fill-rule="evenodd"/>
          <path id="Path_2296" data-name="Path 2296" d="M297.426,550.979a1.222,1.222,0,1,0-1.715.219h0A1.223,1.223,0,0,0,297.426,550.979Z" fill="#e5ecf5" fill-rule="evenodd"/>
          <path id="Path_2297" data-name="Path 2297" d="M287.668,555.2a1.957,1.957,0,0,1,1.7,1.027,1.434,1.434,0,0,1,.49-1.877,1.265,1.265,0,0,1,1.716.386,1.444,1.444,0,0,1,.364-1.817,1.264,1.264,0,0,1,1.774.227c.02.026.039.053.058.081a1.435,1.435,0,0,1,.479-1.9,1.251,1.251,0,0,1,1.454.1,1.272,1.272,0,0,1-.2-1.709,1.219,1.219,0,0,1,.235-.241,6.954,6.954,0,0,1-1.645-4.534c0,1.235-2.878,2.236-6.427,2.236s-6.427-1-6.427-2.236a6.954,6.954,0,0,1-1.645,4.534,1.191,1.191,0,0,1,.235.241,1.272,1.272,0,0,1-.2,1.708,1.251,1.251,0,0,1,1.454-.1,1.434,1.434,0,0,1,.479,1.9,1.265,1.265,0,0,1,1.75-.366c.028.018.055.038.082.058a1.445,1.445,0,0,1,.365,1.817,1.265,1.265,0,0,1,1.715-.386,1.435,1.435,0,0,1,.49,1.878,1.959,1.959,0,0,1,1.7-1.028Z" fill="#f0d5b3" fill-rule="evenodd"/>
          <path id="Path_2298" data-name="Path 2298" d="M273.594,556.915l12.047,13H289.7l12.043-13v-4.581a13.342,13.342,0,0,1-4.069-1.912,1.162,1.162,0,0,1-1.758.386,1.418,1.418,0,0,1-.158,2.3,1.315,1.315,0,0,1-1.758-.386,1.42,1.42,0,0,1-.375,1.817,1.314,1.314,0,0,1-1.84-.257q-.02-.025-.036-.051a1.417,1.417,0,0,1-.492,1.9,1.319,1.319,0,0,1-1.808-.459l-.017-.028a2.061,2.061,0,1,1-3.534,0,1.319,1.319,0,0,1-1.8.5l-.029-.016a1.417,1.417,0,0,1-.492-1.9,1.313,1.313,0,0,1-1.825.344c-.018-.011-.035-.024-.051-.036a1.42,1.42,0,0,1-.375-1.817,1.315,1.315,0,0,1-1.758.386,1.417,1.417,0,0,1-.157-2.3,1.161,1.161,0,0,1-1.631-.189,1.1,1.1,0,0,1-.126-.2,13.364,13.364,0,0,1-4.069,1.912v4.581Z" fill="#f0d5b3" fill-rule="evenodd"/>
          <path id="Path_2299" data-name="Path 2299" d="M278.714,574.043c0,1.235,4.008,2.236,8.954,2.236s8.954-1,8.954-2.236c0-.949-2.365-1.759-5.7-2.084l2.106-6.263-3.369,3.705H285.68l-3.369-3.705,2.1,6.263C281.079,572.284,278.714,573.094,278.714,574.043Z" fill="#f0d5b3" fill-rule="evenodd"/>
          <ellipse id="Ellipse_91" data-name="Ellipse 91" cx="6.81" cy="2.236" rx="6.81" ry="2.236" transform="translate(280.857 542.704)" fill="#f0d5b3"/>
          <path id="Path_2300" data-name="Path 2300" d="M277.909,550.979a1.211,1.211,0,0,0,1.486.356,1.224,1.224,0,0,1,.006-2.208,1.223,1.223,0,0,0-1.492,1.852Z" fill="#cad8eb" fill-rule="evenodd"/>
          <path id="Path_2301" data-name="Path 2301" d="M279.587,553.429a1.275,1.275,0,0,0,1.211.082,1.392,1.392,0,0,1,.008-2.571,1.387,1.387,0,0,0-1.219,2.489Z" fill="#cad8eb" fill-rule="evenodd"/>
          <path id="Path_2302" data-name="Path 2302" d="M281.711,554.807a1.387,1.387,0,0,0,1.34.162,1.392,1.392,0,0,1,0-2.573,1.387,1.387,0,0,0-1.34,2.409Z" fill="#cad8eb" fill-rule="evenodd"/>
          <path id="Path_2303" data-name="Path 2303" d="M284.077,556.343a1.386,1.386,0,0,0,1.218.083,1.356,1.356,0,0,1-.171-.083,1.386,1.386,0,0,1,.18-2.488,1.387,1.387,0,1,0-1.227,2.488Z" fill="#cad8eb" fill-rule="evenodd"/>
          <path id="Path_2304" data-name="Path 2304" d="M285.6,556.824a2.1,2.1,0,0,0,2.1,2.1,2.166,2.166,0,0,0,.519-.066,2.1,2.1,0,0,1,0-4.059,2.1,2.1,0,0,0-2.554,1.513A2.047,2.047,0,0,0,285.6,556.824Z" fill="#cad8eb" fill-rule="evenodd"/>
          <path id="Path_2305" data-name="Path 2305" d="M289.4,555.856a1.387,1.387,0,0,0,1.715.57,1.394,1.394,0,0,1-.009-2.572,1.27,1.27,0,0,0-1.21.083,1.386,1.386,0,0,0-.51,1.893Z" fill="#cad8eb" fill-rule="evenodd"/>
          <path id="Path_2306" data-name="Path 2306" d="M291.714,554.5a1.386,1.386,0,0,0,1.648.471,1.4,1.4,0,0,1-.018-2.572,1.272,1.272,0,0,0-1.322.161,1.381,1.381,0,0,0-.317,1.928Z" fill="#cad8eb" fill-rule="evenodd"/>
          <path id="Path_2307" data-name="Path 2307" d="M293.96,553.043a1.387,1.387,0,0,0,1.647.469,1.394,1.394,0,0,1,0-2.572,1.386,1.386,0,0,0-1.645,2.1Z" fill="#cad8eb" fill-rule="evenodd"/>
          <path id="Path_2308" data-name="Path 2308" d="M297.15,549.128a1.223,1.223,0,1,0,.005,2.208,1.22,1.22,0,0,1-.005-2.208Z" fill="#cad8eb" fill-rule="evenodd"/>
          <path id="Path_2309" data-name="Path 2309" d="M281,544.94c0,1.235,3.05,2.237,6.811,2.237-.086,0-5.239-.117-5.239-2.237,0-2.232,5.239-2.236,5.239-2.236C284.053,542.7,281,543.705,281,544.94Z" fill="#e8bc85" fill-rule="evenodd"/>
          <path id="Path_2310" data-name="Path 2310" d="M282.422,546.257c-.821-.369-1.3-.824-1.3-1.314a6.727,6.727,0,0,1-1.743,4.534,1.226,1.226,0,0,1,.5.913A13.171,13.171,0,0,0,282.422,546.257Z" fill="#e8bc85" fill-rule="evenodd"/>
          <path id="Path_2311" data-name="Path 2311" d="M273.594,556.914l12.459,13h1.571l-12.459-13v-4.233a17.252,17.252,0,0,0,3.3-1.692,1.217,1.217,0,0,1-.663-.567,14,14,0,0,1-4.208,1.912Z" fill="#e8bc85" fill-rule="evenodd"/>
          <path id="Path_2312" data-name="Path 2312" d="M285.2,569.57v-.01l-.07-.19-.24-.67-.09-.26v-.01l-.05-.13-1.38-1.44-.09-.09-.94-.99-.08-.08.14.4.18.51v.01l.7,1.96.09.25,1.1,3.13v2.35h1.58v-2.35Zm-4.78,5.23a1.023,1.023,0,0,1-.38-.76,1.091,1.091,0,0,1,.28-.71,4.293,4.293,0,0,1,1.99-1.08c-.1.01-.2.03-.3.05-2.16.4-3.54,1.04-3.54,1.74,0,.78,1.66,1.46,4.2,1.86.24.04.48.08.73.11.27.03.55.07.83.09s.57.06.86.08c.59.04,1.21.07,1.84.09.24.01.49.01.74.01C286.557,576.25,281.787,576.08,280.417,574.8Z" fill="#e8bc85" fill-rule="evenodd"/>
        </g>
        <g id="Group_502" data-name="Group 502">
          <path id="Path_2313" data-name="Path 2313" d="M287.144,556.291h1.048v1.048h-1.048Z" fill="#fff"/>
        </g>
        <g id="Group_503" data-name="Group 503">
          <path id="Path_2314" data-name="Path 2314" d="M298.217,556.04l-.72.75.75.73.73-.76Zm-1.45,1.51-2.58,2.69.76.73,2.58-2.7Zm-11.44,15.72v1.04h1.05v-1.04Z" fill="#fff"/>
        </g>
        <g id="Group_504" data-name="Group 504">
          <path id="Path_2315" data-name="Path 2315" d="M292.4,548.236h1.048v1.048H292.4Z" fill="#fff"/>
        </g>
      </g>
      <g id="Group_506" data-name="Group 506">
        <path id="Path_2316" data-name="Path 2316" d="M295.7,572.467a13.167,13.167,0,0,0-3.138-.83l-.146,1.035a12.3,12.3,0,0,1,2.9.76c.7.31.839.561.839.61,0,.1-.4.612-2.247,1.072a30.658,30.658,0,0,1-12.468,0c-1.846-.46-2.246-.97-2.246-1.072,0-.049.14-.3.828-.6a12.118,12.118,0,0,1,2.874-.759l-.15-1.035c-3.019.483-4.55,1.291-4.55,2.4,0,.9.986,1.586,3.013,2.091a31.533,31.533,0,0,0,12.929,0c2.027-.505,3.013-1.189,3.013-2.091C297.144,573.424,296.658,572.894,295.7,572.467Z"/>
        <path id="Path_2317" data-name="Path 2317" d="M301.878,552a14.014,14.014,0,0,1-2.754-1.066l-.481.931a15.113,15.113,0,0,0,2.576,1.037v3.975l-5.722,5.971.756.725,6.013-6.277V552.1Z"/>
        <path id="Path_2318" data-name="Path 2318" d="M281.628,546.347a11,11,0,0,0,5.534,1.346l.025-1.047c-3.567-.095-5.433-1.161-5.433-1.706,0-.584,2.087-1.713,5.912-1.713s5.912,1.132,5.912,1.713c0,.545-1.866,1.611-5.434,1.706l.025,1.047a11.014,11.014,0,0,0,5.534-1.346,7.373,7.373,0,0,0,.722,2.1l.861-.511a6.393,6.393,0,0,1-.723-3c0-1.809-3.468-2.758-6.9-2.758s-6.9.949-6.9,2.76a6.412,6.412,0,0,1-.719,3l.861.511a7.38,7.38,0,0,0,.722-2.1Z"/>
        <path id="Path_2319" data-name="Path 2319" d="M279.839,562.846l-5.721-5.971V552.9a15.147,15.147,0,0,0,2.576-1.037l-.481-.931A14.023,14.023,0,0,1,273.458,552l-.388.105V557.3l6.012,6.277Z"/>
        <path id="Path_2320" data-name="Path 2320" d="M287.331,569.925v-1.048h-1.348l-5.712-5.961-.757.724,2.24,2.336,2.151,6.072v2.262h1.048v-2.446l-1.435-4.05,2.019,2.107Z"/>
        <path id="Path_2321" data-name="Path 2321" d="M290.379,574.311h1.048v-2.263l2.151-6.071,2.239-2.335-.756-.725-5.713,5.962H288v1.048h1.8l2.019-2.107-1.435,4.05Z"/>
        <path id="Path_2322" data-name="Path 2322" d="M297.557,548.7a1.636,1.636,0,0,0-2.25.2c-.02.01-.03.03-.04.04a.349.349,0,0,0-.05.08,1.115,1.115,0,0,1-1.13,1.47,1.911,1.911,0,0,0-.88,1.31l-.14-.03a1.781,1.781,0,0,0-1.36.34,1.928,1.928,0,0,0-.73,1.2,1.756,1.756,0,0,0-1.34.21,1.835,1.835,0,0,0-.82,1.07,2.407,2.407,0,0,0-2.3,0,1.835,1.835,0,0,0-.82-1.07,1.756,1.756,0,0,0-1.34-.21,1.973,1.973,0,0,0-.73-1.2,1.82,1.82,0,0,0-1.08-.36,1.319,1.319,0,0,0-.28.02l-.14.03a1.911,1.911,0,0,0-.88-1.31,1.833,1.833,0,0,0-.79-.25,1.394,1.394,0,0,0-.03-.5,1.648,1.648,0,0,0-.31-.72l-.09-.12-.11-.11a1.6,1.6,0,0,0-2.06-.14.414.414,0,0,0-.08.06,1.788,1.788,0,0,0-.54,1.98v.01c.01.03.02.04.03.07a1.583,1.583,0,0,0,.21.38,1.5,1.5,0,0,0,.27.29,1.617,1.617,0,0,0,.78.37,1.952,1.952,0,0,0,.89,2,1.745,1.745,0,0,0,1.34.2,1.932,1.932,0,0,0,.72,1.2,1.771,1.771,0,0,0,1.51.31,1.911,1.911,0,0,0,.88,1.31,1.721,1.721,0,0,0,1.29.21v5.11h1.01v-3.14a2.428,2.428,0,0,0,1,.47v4.77h1v-4.77a2.428,2.428,0,0,0,1-.47v3.14h1v-5.11a1.739,1.739,0,0,0,1.3-.21,1.911,1.911,0,0,0,.88-1.31,1.771,1.771,0,0,0,1.51-.31,1.905,1.905,0,0,0,.72-1.2,1.745,1.745,0,0,0,1.34-.2,1.952,1.952,0,0,0,.89-2,1.627,1.627,0,0,0,1.05-.66,1.6,1.6,0,0,0,.23-.45A1.786,1.786,0,0,0,297.557,548.7Zm-.8.73a.5.5,0,0,1,.19.1.742.742,0,0,1,.12.99.674.674,0,0,1-.45.26h-.02a.627.627,0,0,1-.47-.14.718.718,0,0,1-.12-.98.649.649,0,0,1,.53-.27A.57.57,0,0,1,296.757,549.43Zm-1.34,3.47a.754.754,0,0,1-.41.12H295a.816.816,0,0,1-.66-.35.266.266,0,0,0-.06-.1.893.893,0,0,1,.31-1.17.877.877,0,0,1,.42-.11.34.34,0,0,1,.1.01.772.772,0,0,1,.61.42A.882.882,0,0,1,295.417,552.9Zm-2.51-.09a.809.809,0,0,1,.54.34.4.4,0,0,0,.05.09.882.882,0,0,1-.23,1.12.743.743,0,0,1-.47.16.791.791,0,0,1-.66-.31c-.01-.01-.01-.02-.02-.03-.02-.03-.04-.07-.06-.1a.885.885,0,0,1,.24-1.12.766.766,0,0,1,.52-.16A.277.277,0,0,1,292.907,552.81Zm-1.94,3.11a.73.73,0,0,1-.38.11.789.789,0,0,1-.73-.39.052.052,0,0,1-.02-.04.882.882,0,0,1,.3-1.18.831.831,0,0,1,.4-.11h.01a.807.807,0,0,1,.67.35l.06.09A.893.893,0,0,1,290.967,555.92Zm-3.71,2.37h-.01a1.5,1.5,0,0,1-1.08-1.51,1.476,1.476,0,0,1,1.02-1.36,1.51,1.51,0,0,1,.48-.08,1.532,1.532,0,0,1,1.5,1.57,1.5,1.5,0,0,1-1.57,1.44A1.851,1.851,0,0,1,287.257,558.29Zm-2.89-2.37a.883.883,0,0,1-.31-1.17.888.888,0,0,0,.06-.1.779.779,0,0,1,.6-.34.759.759,0,0,1,.48.11.892.892,0,0,1,.3,1.18.775.775,0,0,1-.74.43h-.01a1.008,1.008,0,0,1-.34-.09C284.387,555.93,284.377,555.93,284.367,555.92Zm-1.9-1.41a.719.719,0,0,1-.37-.13c-.01,0-.02-.01-.03-.02a.882.882,0,0,1-.23-1.12c.02-.03.03-.06.05-.09a.809.809,0,0,1,.54-.34.277.277,0,0,1,.09-.01.8.8,0,0,1,.52.16.915.915,0,0,1,.34.71.857.857,0,0,1-.1.41.874.874,0,0,0-.06.1A.772.772,0,0,1,282.467,554.51Zm-2.28-1.51a.743.743,0,0,1-.27-.1.9.9,0,0,1-.31-1.18.794.794,0,0,1,.71-.43.7.7,0,0,1,.39.09c.01.01.02.01.04.02a.88.88,0,0,1,.3,1.17.878.878,0,0,0-.06.1A.777.777,0,0,1,280.187,553Zm-.86-3.34a.72.72,0,0,1-.12.98.646.646,0,0,1-.38.13c-.03.02-.07.01-.11.01a.687.687,0,0,1-.45-.27.729.729,0,0,1,.12-.98.677.677,0,0,1,.41-.14.492.492,0,0,1,.21.04A.618.618,0,0,1,279.327,549.66Z"/>
      </g>
    </g>
  </g>
</svg>
